<svg id="Layer_1" enable-background="new 0 0 512 512" height="512" viewBox="0 0 512 512" width="512" xmlns="http://www.w3.org/2000/svg"><g><path d="m353.277 389.855h-326.539c-9.916.307-9.909 14.696 0 15h326.54c9.916-.307 9.908-14.697-.001-15z"/><path d="m53.476 336.364c0-14.785-11.995-26.813-26.738-26.813-35.423 1.347-35.412 52.286 0 53.628 14.743 0 26.738-12.03 26.738-26.815zm-38.476 0c0-6.514 5.266-11.813 11.738-11.813 15.551.593 15.546 23.038 0 23.628-6.472 0-11.738-5.3-11.738-11.815z"/><path d="m65.503 336.364c0 14.785 11.995 26.814 26.738 26.814 35.422-1.347 35.414-52.287 0-53.628-14.743.001-26.738 12.029-26.738 26.814zm38.476 0c0 6.515-5.266 11.814-11.738 11.814-15.549-.593-15.546-23.037 0-23.628 6.473.001 11.738 5.301 11.738 11.814z"/><path d="m131.007 336.364c0 14.785 11.995 26.814 26.738 26.814 35.422-1.347 35.414-52.287 0-53.628-14.744.001-26.738 12.029-26.738 26.814zm38.476 0c0 6.515-5.266 11.814-11.738 11.814-15.549-.593-15.546-23.037 0-23.628 6.472.001 11.738 5.301 11.738 11.814z"/><path d="m196.51 336.364c0 14.785 11.995 26.814 26.738 26.814 35.422-1.347 35.413-52.287-.001-53.628-14.742.001-26.737 12.029-26.737 26.814zm38.476 0c0 6.515-5.266 11.814-11.738 11.814-6.472 0-11.738-5.3-11.738-11.814.592-15.651 22.888-15.646 23.476 0z"/><path d="m262.014 336.364c0 14.785 11.995 26.814 26.738 26.814 35.421-1.347 35.412-52.287 0-53.628-14.743.001-26.738 12.029-26.738 26.814zm38.475 0c0 6.515-5.266 11.814-11.737 11.814-15.55-.593-15.547-23.037 0-23.628 6.472.001 11.737 5.301 11.737 11.814z"/><path d="m354.255 309.551c-14.743 0-26.737 12.028-26.737 26.813 1.346 35.525 52.135 35.514 53.476 0-.001-14.785-11.996-26.813-26.739-26.813zm0 38.628c-6.472 0-11.737-5.3-11.737-11.814.592-15.652 22.887-15.646 23.476 0-.001 6.514-5.266 11.814-11.739 11.814z"/><path d="m419.759 309.551c-14.743 0-26.738 12.028-26.738 26.813 1.346 35.524 52.135 35.515 53.476 0-.001-14.785-11.995-26.813-26.738-26.813zm0 38.628c-6.473 0-11.738-5.3-11.738-11.814.591-15.651 22.886-15.647 23.476 0-.001 6.514-5.267 11.814-11.738 11.814z"/><path d="m485.262 309.551c-14.743 0-26.737 12.028-26.737 26.813 1.346 35.525 52.135 35.514 53.476 0-.001-14.785-11.996-26.813-26.739-26.813zm0 38.628c-6.472 0-11.737-5.3-11.737-11.814.592-15.652 22.887-15.646 23.476 0-.001 6.514-5.267 11.814-11.739 11.814z"/><path d="m504.5 107.146h-425.523c-9.916.307-9.909 14.696 0 15h418.023v149.304h-30.976c-9.916.307-9.909 14.697 0 15h38.476c4.143 0 7.5-3.357 7.5-7.5v-164.304c0-4.143-3.357-7.5-7.5-7.5z"/><path d="m7.5 286.449h418.093c9.916-.307 9.909-14.697 0-15h-410.593v-149.303h24.168c9.916-.307 9.909-14.696 0-15h-31.668c-4.142 0-7.5 3.357-7.5 7.5v164.304c0 4.142 3.358 7.499 7.5 7.499z"/><path d="m178.006 230.497 3.63-9.734h24.726l3.589 9.714c1.347 3.645 6.027 5.767 9.634 4.436 3.886-1.436 5.872-5.749 4.436-9.635l-21.683-58.684c-.025-.067-.051-.136-.078-.202-1.356-3.365-4.57-5.537-8.188-5.533s-6.828 2.183-8.176 5.551c-.022.056-.043.111-.064.167l-21.881 58.681c-1.447 3.881.526 8.2 4.407 9.647 3.882 1.448 8.202-.526 9.648-4.408zm16.05-43.042 6.764 18.308h-13.591z"/><path d="m331.225 161.298c-3.152.965-5.304 3.875-5.304 7.171v59.408c0 9.386 15 9.813 15 0v-34.926l25.614 37.884c4.87 7.19 15.221 3.305 15.221-5.035l-.545-57.514c-.093-9.8-15.092-9.659-15 .143l.338 35.646-26.915-39.808c-1.846-2.729-5.261-3.937-8.409-2.969z"/><path d="m60.083 235.327c3.125 0 12.965.038 19.628 0 4.142-.023 7.481-3.4 7.458-7.543-.023-4.127-3.377-7.457-7.499-7.457h-.043c-3.932.022-8.875.043-12.863.048v-52.018c-.307-9.916-14.696-9.909-15 0v59.47c-.001 8.125 8.319 7.5 8.319 7.5z"/><path d="m313.588 227.877v-59.52c0-9.386-15-9.813-15 0v59.52c0 9.386 15 9.813 15 0z"/><path d="m241.459 234.497h.029c.484-.002 11.908.082 16.475 0 39.61-.786 39.766-73.375-.603-72.759h-16.016c-4.198 0-7.5 3.394-7.5 7.56v56.761c0 4.087 3.165 8.438 7.615 8.438zm15.901-57.759c20.228-.568 20.818 41.931.334 42.632-2.021.036-5.522.065-8.76.087l-.077-42.719z"/><path d="m427.585 175.857c4.311 0 8.471 1.299 12.031 3.756 8.336 5.38 16.502-6.468 8.52-12.346-23.883-16.882-57.566 1.534-57.187 30.85 1.208 46.845 69.347 51.996 69.288-.001 0-4.142-3.357-7.499-7.5-7.499h-17.433c-9.916.307-9.909 14.697 0 15h9.082c-1.852 7.833-6.898 14.76-16.802 14.76-28.662-1.109-28.65-43.416.001-44.52z"/><path d="m160.767 198.117c0-20.545-16.435-37.26-36.636-37.26-48.533 1.864-48.52 72.663 0 74.52 20.201 0 36.636-16.715 36.636-37.26zm-58.273 0c0-12.274 9.706-22.26 21.637-22.26 28.661 1.109 28.652 43.415 0 44.52-11.931 0-21.637-9.985-21.637-22.26z"/><path d="m419.759 389.854c-9.652 0-9.668 15 0 15 9.651 0 9.667-15 0-15z"/><path d="m452.737 389.854c-9.652 0-9.668 15 0 15 9.652 0 9.668-15 0-15z"/><path d="m387.667 389.854c-9.652 0-9.668 15 0 15 9.651 0 9.667-15 0-15z"/><path d="m485.262 389.854c-9.652 0-9.668 15 0 15 9.652 0 9.668-15 0-15z"/></g></svg>